<svg width="183" height="61" viewBox="0 0 183 61" fill="none" xmlns="http://www.w3.org/2000/svg">
<g clip-path="url(#clip0_2118_28437)">
<path d="M26.089 36.3244L25.9612 36.7613C25.9413 36.8356 23.716 43.9982 14.145 44.212H13.2791V44.1981C13.0059 44.1981 12.7327 44.1679 12.4639 44.1353C11.1705 43.9966 9.89924 43.6843 8.68086 43.206C7.39966 42.7212 6.19097 42.0452 5.09171 41.1987C3.78698 40.2071 2.69098 38.9414 1.8727 37.4814C0.644606 35.2101 -0.0012207 32.6406 -0.0012207 30.0261C-0.0012207 27.4115 0.644606 24.842 1.8727 22.5707C2.69098 21.1107 3.78698 19.845 5.09171 18.8534C6.19045 18.006 7.39926 17.33 8.68086 16.8461C9.89779 16.3681 11.1676 16.0559 12.4595 15.9168C12.8749 15.8657 13.2927 15.8401 13.7109 15.8401H14.1516V15.8633C15.3773 15.9075 16.5897 16.1472 17.7473 16.5743C18.9883 17.0158 20.1119 17.762 21.0258 18.7512C22.0167 19.8311 22.7355 21.1553 23.1167 22.6032C23.2687 23.1933 22.7201 23.7648 21.9336 23.8531C21.4305 23.91 20.923 23.91 20.4199 23.8531C19.6091 23.7671 19.0649 23.4837 19.0979 23.1561C19.1973 22.2449 19.0713 21.322 18.7322 20.4774C18.346 19.5243 17.7447 18.6852 16.9806 18.0333C16.0635 17.2218 14.9101 16.7667 13.7131 16.7439H13.6228C12.0753 16.7578 10.5661 17.2533 9.28456 18.1681C8.34207 18.8578 7.54223 19.7423 6.93362 20.7678C6.24601 21.8686 5.69163 23.0557 5.28337 24.3015C4.01263 27.9907 4.01263 32.0336 5.28337 35.7228C5.69388 36.971 6.25047 38.1604 6.94024 39.2634C7.55708 40.2938 8.36586 41.1814 9.31759 41.8725C10.6169 42.7899 12.145 43.2806 13.7087 43.2827H13.7947C23.0352 43.2455 25.1173 36.5336 25.1371 36.4662L25.2649 36.0317L26.089 36.3244Z" fill="black"/>
<path d="M46.498 44.2236L46.5156 40.8386C45.7187 41.4789 44.8684 42.042 43.9752 42.5207C43.155 42.9993 42.2766 43.3573 41.3643 43.5847C40.7713 43.7637 40.1687 43.9057 39.5598 44.0099C38.2051 44.244 36.8253 44.2683 35.4639 44.0819C34.0581 43.9032 32.7094 43.3892 31.5201 42.5788L31.0485 42.2325C30.8987 42.1001 30.7511 41.9561 30.6079 41.8121C30.2954 41.5152 30.0153 41.1825 29.7729 40.82C29.5104 40.4306 29.2832 40.016 29.0943 39.5817C28.9339 39.1721 28.8028 38.7504 28.7021 38.3202C28.2993 36.659 28.4176 34.9049 29.0392 33.3205C29.6103 31.903 30.5262 30.6696 31.6941 29.7449C32.8413 28.8702 34.1031 28.176 35.4397 27.6842C36.8177 27.1294 38.2304 26.6761 39.6678 26.3274C45.9868 24.7336 46.2204 22.5288 46.2204 22.5079H46.2776C46.2182 22.1734 46.1499 21.8644 46.075 21.5786C45.8818 20.7905 45.5906 20.0327 45.209 19.3251C44.8306 18.6403 44.3092 18.0555 43.6844 17.6151C42.7913 17.0312 41.756 16.7349 40.7055 16.7625H40.6813C39.3784 16.7652 38.1089 17.1974 37.0503 17.9985C36.226 18.6958 35.552 19.5703 35.0733 20.5638C34.5946 21.5573 34.3222 22.647 34.2742 23.7602C34.2389 24.1714 33.6529 24.3805 32.8487 24.3294C32.3431 24.3136 31.841 24.2356 31.3526 24.0971C30.5815 23.8508 30.1386 23.1515 30.381 22.5962C30.9653 21.2016 31.7817 19.9285 32.7914 18.8371C33.7793 17.773 34.9961 16.976 36.3386 16.5139C37.7548 16.0654 39.227 15.8446 40.7055 15.8587C41.8808 15.8546 43.0531 15.9839 44.2022 16.2444C45.1568 16.4551 46.0782 16.8079 46.9386 17.2922C47.9764 17.9051 48.8509 18.7841 49.4812 19.8478C50.4046 21.4577 50.8774 23.3102 50.845 25.1913V39.5957C50.8448 40.4358 51.0096 41.2668 51.3288 42.0365C51.6481 42.8062 52.115 43.4979 52.7002 44.068L52.8742 44.2352L46.498 44.2236ZM43.572 41.7098C44.6367 41.1609 45.6267 40.4639 46.5156 39.6375V25.1727C46.5156 24.7197 46.487 24.3108 46.4561 23.9298C45.6651 24.9079 43.8849 26.2019 39.8771 27.2149C36.8212 28.0792 34.6708 29.7705 33.5736 31.6291C33.0761 32.4784 32.768 33.4356 32.6724 34.4287C32.5887 35.3644 32.6633 36.3084 32.8927 37.2166C32.9346 37.4629 33.0249 37.6813 33.0756 37.9136C33.1637 38.0762 33.1747 38.2574 33.2805 38.4294C33.3602 38.6176 33.4569 38.7973 33.5691 38.9661L33.7366 39.2448L33.9569 39.5097C34.594 40.3043 35.3677 40.9649 36.2373 41.4566C37.2569 42.049 38.3825 42.4106 39.5422 42.5184C40.9343 42.6505 42.3335 42.3679 43.5808 41.7029L43.572 41.7098Z" fill="black"/>
<path d="M76.1079 9.57655C75.6566 9.81123 75.1852 10.0002 74.7 10.1411C73.9289 10.3734 73.2701 10.1574 73.226 9.7508C73.1428 8.81154 72.9955 7.87982 72.7854 6.96287C72.5847 6.11476 72.1949 5.32939 71.6485 4.67209C71.3006 4.2909 70.881 3.99064 70.4165 3.79059C69.9521 3.59054 69.4531 3.49512 68.9516 3.51045C67.8787 3.44496 66.8164 3.76434 65.9376 4.41656C65.3274 4.91117 64.8392 5.55343 64.5143 6.28908C64.1711 7.07863 63.9104 7.90517 63.7365 8.7541C63.4534 10.0175 63.3056 11.3103 63.2958 12.6084V15.861H69.7008V16.7741H63.3091V39.5956C63.3089 40.4354 63.4736 41.266 63.7929 42.0354C64.1122 42.8047 64.5791 43.4959 65.1642 44.0656L65.3383 44.2329H56.9504L57.1245 44.0656C57.7096 43.4959 58.1765 42.8047 58.4958 42.0354C58.815 41.266 58.9798 40.4354 58.9796 39.5956V16.7741H52.5747V15.861H58.9796V12.6084C58.9568 10.722 59.3946 8.86102 60.2509 7.2045C60.8299 6.09869 61.6389 5.14553 62.6172 4.41656C63.4527 3.81872 64.3725 3.36393 65.3427 3.06905C66.5171 2.70875 67.738 2.54643 68.9605 2.58811H68.9803C70.1948 2.54647 71.4038 2.77687 72.5276 3.26417C73.5894 3.77081 74.5214 4.537 75.2464 5.49919C75.9186 6.40488 76.5219 7.36502 77.0509 8.37073C77.2492 8.72387 76.8306 9.19554 76.1079 9.57655Z" fill="black"/>
<path d="M94.4393 36.2547L94.3115 36.6892C94.2917 36.7636 92.0906 43.8496 82.6341 44.0633H81.7506V44.0493C81.4818 44.0493 81.213 44.0215 80.9486 43.9889C79.6686 43.8546 78.41 43.5494 77.203 43.0806C75.9337 42.6022 74.7361 41.934 73.6469 41.0965C72.3525 40.1152 71.2654 38.8613 70.4544 37.4141C69.2362 35.1649 68.5955 32.6196 68.5955 30.0295C68.5955 27.4394 69.2362 24.8941 70.4544 22.645C71.266 21.1983 72.353 19.9444 73.6469 18.9626C74.7361 18.1258 75.9338 17.4584 77.203 16.9808C78.4103 16.5124 79.6687 16.2064 80.9486 16.0701C81.359 16.021 81.7716 15.9961 82.1846 15.9958H82.6253C84.263 16.0609 85.8786 16.4167 87.4042 17.0482C88.8971 17.6452 90.2441 18.5877 91.3457 19.8064C92.4473 21.0252 93.2756 22.489 93.7695 24.0901C93.851 24.3503 93.9259 24.6198 93.9898 24.8939C94.0005 24.9292 94.0057 24.9661 94.0053 25.0031H73.6734C73.1992 26.6289 72.9491 28.3182 72.9309 30.0191C72.949 31.9407 73.2653 33.8462 73.8672 35.66C74.2705 36.8937 74.819 38.0692 75.4999 39.1588C76.1058 40.1804 76.9036 41.0605 77.8442 41.7447C78.922 42.5113 80.1669 42.9765 81.4619 43.0968C81.7043 43.1154 81.9445 43.141 82.189 43.141H82.2706C91.3745 43.1038 93.4015 36.6776 93.4831 36.4035L93.6131 35.969L94.4393 36.2547ZM75.4911 20.9049C74.8721 21.9082 74.3628 22.9822 73.973 24.1064H89.9027C89.7949 23.2806 89.559 22.4792 89.2043 21.7342C88.6031 20.4658 87.7221 19.368 86.6352 18.5328C85.3595 17.5135 83.8113 16.9444 82.2111 16.9065H82.1714H82.0921C80.5625 16.9197 79.0708 17.4095 77.8045 18.3144C76.8747 18.9993 76.0862 19.8758 75.4867 20.8909L75.4911 20.9049Z" fill="black"/>
<path d="M115.172 9.44413C115.166 8.25178 115.05 7.06285 114.826 5.89415C114.69 5.1124 114.474 4.34832 114.183 3.615C113.868 2.77741 113.311 2.06531 112.592 1.57924C111.872 1.09317 111.026 0.857716 110.173 0.906081V-0.00695189C111.316 -0.00767835 112.453 0.163635 113.55 0.501832C114.458 0.787201 115.319 1.21566 116.104 1.77266C117.03 2.44944 117.793 3.34432 118.334 4.38635C119.123 5.94088 119.526 7.68102 119.504 9.44413V39.577C119.504 40.4168 119.668 41.2475 119.988 42.0168C120.307 42.7861 120.774 43.4774 121.359 44.047L121.533 44.2166H113.145L113.319 44.047C113.904 43.4774 114.371 42.7861 114.69 42.0168C115.01 41.2475 115.174 40.4168 115.174 39.577L115.172 9.44413Z" fill="black"/>
<path d="M149.878 22.6055C151.094 24.8733 151.734 27.4345 151.734 30.04C151.734 32.6454 151.094 35.2066 149.878 37.4745C149.068 38.9318 147.981 40.1972 146.685 41.1917C145.594 42.0442 144.391 42.7251 143.114 43.213C141.901 43.6924 140.635 44.0047 139.346 44.1423C138.939 44.1934 138.529 44.2189 138.119 44.2189H138.077C137.668 44.2189 137.259 44.1934 136.852 44.1423C135.564 44.0047 134.297 43.6924 133.085 43.213C131.807 42.7255 130.604 42.0446 129.513 41.1917C128.218 40.1972 127.131 38.9318 126.321 37.4745C125.104 35.2066 124.465 32.6454 124.465 30.04C124.465 27.4345 125.104 24.8733 126.321 22.6055C127.131 21.1483 128.218 19.8829 129.513 18.8882C130.605 18.0369 131.808 17.3569 133.085 16.8693C134.296 16.3902 135.561 16.0778 136.848 15.94C137.262 15.887 137.678 15.8607 138.095 15.8611C138.512 15.8607 138.928 15.887 139.342 15.94C140.63 16.0778 141.895 16.3902 143.107 16.8693C144.383 17.3574 145.585 18.0374 146.677 18.8882C147.973 19.8822 149.06 21.1477 149.871 22.6055H149.878ZM146.463 35.7367C147.714 32.0503 147.714 28.0204 146.463 24.334C146.059 23.0879 145.51 21.8994 144.828 20.7957C144.221 19.7631 143.419 18.8728 142.473 18.1797C141.182 17.2578 139.659 16.7642 138.099 16.7625H138.009C136.467 16.7752 134.963 17.2727 133.691 18.1913C132.756 18.8842 131.964 19.7703 131.364 20.7957C130.686 21.8974 130.139 23.0826 129.736 24.3247C128.484 28.0119 128.484 32.0425 129.736 35.7297C130.139 36.9762 130.688 38.1649 131.37 39.2681C131.978 40.3008 132.778 41.1917 133.724 41.8864C135.014 42.8042 136.534 43.2967 138.09 43.3013H138.11H138.194C139.735 43.287 141.238 42.7897 142.51 41.8725C143.446 41.1795 144.238 40.2935 144.839 39.2681C145.516 38.1651 146.063 36.9791 146.467 35.7367H146.463Z" fill="black"/>
<path d="M178.986 19.4691C178.773 19.9876 178.607 20.5258 178.49 21.0768C178.811 21.6444 179.084 22.2406 179.305 22.8588C180.089 25.2185 180.043 27.7968 179.175 30.1236C178.83 31.0165 178.363 31.8516 177.789 32.6026C176.957 33.6847 175.909 34.5611 174.72 35.1698C173.725 35.6441 172.684 36.0033 171.616 36.2409C170.389 36.522 169.138 36.666 167.883 36.6706H167.793H167.573C166.22 36.6321 164.875 36.4326 163.565 36.0759C162.505 35.7968 161.478 35.3956 160.502 34.8794C159.46 34.2896 158.536 33.491 157.783 32.5283C157.338 33.0033 156.991 33.5704 156.763 34.194C156.473 35.0237 156.353 35.9092 156.413 36.7914C156.446 37.4738 156.631 38.1385 156.953 38.7314C157.018 38.859 157.099 38.9769 157.193 39.0822C157.271 39.1927 157.358 39.296 157.453 39.3912C157.636 39.5701 157.839 39.7261 158.057 39.8558L158.374 40.0464L158.724 40.1904C158.96 40.2874 159.202 40.3651 159.449 40.4228C160.674 40.6892 161.922 40.8208 163.173 40.8154C163.948 40.827 164.812 40.8456 165.817 40.8317L167.421 40.8131C167.993 40.8131 168.661 40.7945 169.344 40.8131C171.634 40.7891 173.913 41.1386 176.101 41.8492C177.713 42.3606 179.157 43.3376 180.27 44.6697C181.201 45.8883 181.715 47.4028 181.729 48.9678C181.718 49.3511 181.707 49.7484 181.696 50.1619C181.665 50.586 181.612 51.0079 181.537 51.4258C181.37 52.4133 181.052 53.3658 180.596 54.2463L180.572 54.2881C179.915 55.4641 179.033 56.4825 177.981 57.2781C176.938 58.0605 175.804 58.7 174.608 59.1809C172.483 60.0281 170.26 60.5674 167.998 60.7839C165.693 61.0791 163.361 61.0557 161.062 60.7142C160.631 60.6671 160.234 60.4443 159.956 60.0933C159.678 59.7422 159.541 59.2906 159.575 58.8347C159.656 58.3038 159.839 57.796 160.114 57.3432C160.302 57.0033 160.594 56.7412 160.942 56.6005C161.291 56.4598 161.674 56.4489 162.029 56.5695C163.944 57.2546 165.936 57.6731 167.954 57.8148C170.019 58.0328 172.102 57.9546 174.147 57.5825C175.293 57.3664 176.396 56.9461 177.408 56.3395C178.412 55.7343 179.248 54.8618 179.832 53.8095C179.918 53.6413 179.995 53.4684 180.063 53.2914C180.592 51.9799 180.684 50.5178 180.323 49.1443C180.194 48.6263 179.966 48.1415 179.653 47.7196C179.34 47.2977 178.949 46.9477 178.503 46.691C177.467 46.1602 176.346 45.8357 175.198 45.7337C173.229 45.5031 171.25 45.386 169.269 45.3829L167.403 45.3411C166.784 45.3225 166.204 45.297 165.651 45.2412C164.653 45.1574 163.66 45.0022 162.681 44.7766C161.13 44.4468 159.653 43.8073 158.33 42.8924C158.031 42.6838 157.748 42.4508 157.484 42.1954L157.089 41.8144L156.732 41.3776C156.497 41.0783 156.287 40.7572 156.107 40.4181C156.016 40.2429 155.935 40.0621 155.864 39.8768C155.781 39.6951 155.714 39.5053 155.666 39.3099C155.439 38.4891 155.351 37.6328 155.404 36.7798C155.443 36.0231 155.559 35.273 155.75 34.5425C155.807 34.3204 155.875 34.1017 155.955 33.8873L155.966 33.8525C156.25 33.0701 156.692 32.3626 157.263 31.7801C156.849 31.1141 156.507 30.401 156.243 29.6543C155.457 27.295 155.503 24.7158 156.373 22.3894C156.719 21.4961 157.186 20.6604 157.759 19.9082C158.593 18.8302 159.641 17.9579 160.828 17.3526C161.822 16.8779 162.863 16.5188 163.931 16.2815C166.586 15.65 169.348 15.705 171.979 16.4419C172.761 16.6552 173.526 16.9277 174.271 17.2573C174.674 17.4525 174.674 17.4525 175.322 17.8079C175.612 17.9892 175.897 18.1867 176.17 18.3981C176.447 18.1146 176.747 17.8565 177.067 17.6267C177.852 17.0683 178.714 16.6398 179.622 16.3559C180.718 16.0153 181.855 15.8439 182.998 15.8471V16.7578C182.006 16.7336 181.036 17.0608 180.241 17.6871C179.693 18.1661 179.262 18.7773 178.986 19.4691ZM175.229 28.6763C175.61 27.1948 175.638 25.6368 175.31 24.1412C175.172 23.5389 174.99 22.9485 174.766 22.3755C174.408 21.4508 173.95 20.5729 173.4 19.7595C172.864 18.9903 172.201 18.3299 171.442 17.8103C170.557 17.2359 169.556 16.8897 168.52 16.7996C168.331 16.7834 168.141 16.7625 167.949 16.7578H167.874C166.656 16.7352 165.453 17.056 164.391 17.6871C163.623 18.1765 162.943 18.8058 162.384 19.5458C161.809 20.3362 161.321 21.1937 160.932 22.1014C160.688 22.6645 160.485 23.2462 160.324 23.8415C159.942 25.3237 159.914 26.8824 160.242 28.3789C160.381 28.9794 160.562 29.5682 160.784 30.1399H160.826V30.2538C161.178 31.1386 161.622 31.9801 162.148 32.7629C162.683 33.5321 163.347 34.1918 164.107 34.7098C164.993 35.2857 165.995 35.6328 167.033 35.7228C167.218 35.739 167.403 35.7576 167.59 35.7623H167.674C168.893 35.7871 170.096 35.4662 171.157 34.8329C171.926 34.3443 172.606 33.7149 173.164 32.9743C173.739 32.1834 174.226 31.326 174.616 30.4187C174.861 29.8561 175.064 29.2743 175.222 28.6786L175.229 28.6763Z" fill="black"/>
</g>
<defs>
<clipPath id="clip0_2118_28437">
<rect width="183" height="61" fill="white"/>
</clipPath>
</defs>
</svg>
